<svg width="40" height="38" viewBox="0 0 40 38" fill="none" xmlns="http://www.w3.org/2000/svg">
<path d="M18.8135 1.96191C19.1922 0.819757 20.8078 0.819753 21.1865 1.96191L24.4463 11.7949C24.8194 12.9198 25.8715 13.6786 27.0566 13.6787H37.5195C38.7363 13.6789 39.2355 15.2414 38.2441 15.9473L29.8496 21.9238C28.8663 22.624 28.4551 23.8845 28.835 25.0303L32.0576 34.75C32.4377 35.8971 31.13 36.8621 30.1455 36.1611L21.5947 30.0732C20.6401 29.3936 19.3599 29.3936 18.4053 30.0732L9.85449 36.1611C8.87001 36.8621 7.56227 35.8971 7.94238 34.75L11.165 25.0303C11.5449 23.8845 11.1337 22.624 10.1504 21.9238L1.75586 15.9473C0.764545 15.2414 1.26365 13.6789 2.48047 13.6787H12.9434C14.1285 13.6786 15.1806 12.9198 15.5537 11.7949L18.8135 1.96191Z" stroke="#F5DA40" stroke-width="1.5"/>
</svg>
