<svg width="33" height="34" viewBox="0 0 33 34" fill="none" xmlns="http://www.w3.org/2000/svg">
<mask id="path-1-inside-1_2048_2222" fill="white">
<path d="M16.127 0C25.0337 0 32.2539 7.38732 32.2539 16.5C32.2539 19.1488 31.6428 21.651 30.5586 23.8691L33 33.1904L24.208 30.7803C21.8318 32.1908 19.0719 33 16.127 33C7.22028 32.9999 1.9144e-05 25.6126 0 16.5C0 7.38739 7.22026 0.000116016 16.127 0Z"/>
</mask>
<path d="M16.127 0C25.0337 0 32.2539 7.38732 32.2539 16.5C32.2539 19.1488 31.6428 21.651 30.5586 23.8691L33 33.1904L24.208 30.7803C21.8318 32.1908 19.0719 33 16.127 33C7.22028 32.9999 1.9144e-05 25.6126 0 16.5C0 7.38739 7.22026 0.000116016 16.127 0Z" fill="#FBFBFB"/>
<path d="M16.127 0V-2H16.1269L16.127 0ZM32.2539 16.5L34.2539 16.5V16.5H32.2539ZM30.5586 23.8691L28.7617 22.9909L28.4358 23.6578L28.6239 24.3759L30.5586 23.8691ZM33 33.1904L32.4712 35.1193L35.8126 36.0352L34.9347 32.6837L33 33.1904ZM24.208 30.7803L24.7368 28.8514L23.9175 28.6269L23.1871 29.0605L24.208 30.7803ZM16.127 33L16.1269 35H16.127V33ZM0 16.5H-2V16.5L0 16.5ZM16.127 0V2C23.8863 2 30.2539 8.44852 30.2539 16.5H32.2539H34.2539C34.2539 6.32613 26.1812 -2 16.127 -2V0ZM32.2539 16.5L30.2539 16.5C30.2539 18.8383 29.7149 21.0407 28.7617 22.9909L30.5586 23.8691L32.3554 24.7474C33.5706 22.2612 34.2539 19.4592 34.2539 16.5L32.2539 16.5ZM30.5586 23.8691L28.6239 24.3759L31.0653 33.6972L33 33.1904L34.9347 32.6837L32.4933 23.3624L30.5586 23.8691ZM33 33.1904L33.5288 31.2616L24.7368 28.8514L24.208 30.7803L23.6793 32.7091L32.4712 35.1193L33 33.1904ZM24.208 30.7803L23.1871 29.0605C21.1089 30.2941 18.7 31 16.127 31V33V35C19.4438 35 22.5548 34.0875 25.2289 32.5001L24.208 30.7803ZM16.127 33L16.127 31C8.36771 30.9999 2.00002 24.5514 2 16.5L0 16.5L-2 16.5C-1.99998 26.6738 6.07284 34.9999 16.1269 35L16.127 33ZM0 16.5H2C2 8.44862 8.36769 2.0001 16.127 2L16.127 0L16.1269 -2C6.07283 -1.99987 -2 6.32617 -2 16.5H0Z" fill="#838383" mask="url(#path-1-inside-1_2048_2222)"/>
<path d="M16.127 0V-2H16.1269L16.127 0ZM32.2539 16.5L34.2539 16.5V16.5H32.2539ZM30.5586 23.8691L28.7617 22.9909L28.4358 23.6578L28.6239 24.3759L30.5586 23.8691ZM33 33.1904L32.4712 35.1193L35.8126 36.0352L34.9347 32.6837L33 33.1904ZM24.208 30.7803L24.7368 28.8514L23.9175 28.6269L23.1871 29.0605L24.208 30.7803ZM16.127 33L16.1269 35H16.127V33ZM0 16.5H-2V16.5L0 16.5ZM16.127 0V2C23.8863 2 30.2539 8.44852 30.2539 16.5H32.2539H34.2539C34.2539 6.32613 26.1812 -2 16.127 -2V0ZM32.2539 16.5L30.2539 16.5C30.2539 18.8383 29.7149 21.0407 28.7617 22.9909L30.5586 23.8691L32.3554 24.7474C33.5706 22.2612 34.2539 19.4592 34.2539 16.5L32.2539 16.5ZM30.5586 23.8691L28.6239 24.3759L31.0653 33.6972L33 33.1904L34.9347 32.6837L32.4933 23.3624L30.5586 23.8691ZM33 33.1904L33.5288 31.2616L24.7368 28.8514L24.208 30.7803L23.6793 32.7091L32.4712 35.1193L33 33.1904ZM24.208 30.7803L23.1871 29.0605C21.1089 30.2941 18.7 31 16.127 31V33V35C19.4438 35 22.5548 34.0875 25.2289 32.5001L24.208 30.7803ZM16.127 33L16.127 31C8.36771 30.9999 2.00002 24.5514 2 16.5L0 16.5L-2 16.5C-1.99998 26.6738 6.07284 34.9999 16.1269 35L16.127 33ZM0 16.5H2C2 8.44862 8.36769 2.0001 16.127 2L16.127 0L16.1269 -2C6.07283 -1.99987 -2 6.32617 -2 16.5H0Z" fill="black" fill-opacity="0.2" mask="url(#path-1-inside-1_2048_2222)"/>
<path d="M16.127 0V-2H16.1269L16.127 0ZM32.2539 16.5L34.2539 16.5V16.5H32.2539ZM30.5586 23.8691L28.7617 22.9909L28.4358 23.6578L28.6239 24.3759L30.5586 23.8691ZM33 33.1904L32.4712 35.1193L35.8126 36.0352L34.9347 32.6837L33 33.1904ZM24.208 30.7803L24.7368 28.8514L23.9175 28.6269L23.1871 29.0605L24.208 30.7803ZM16.127 33L16.1269 35H16.127V33ZM0 16.5H-2V16.5L0 16.5ZM16.127 0V2C23.8863 2 30.2539 8.44852 30.2539 16.5H32.2539H34.2539C34.2539 6.32613 26.1812 -2 16.127 -2V0ZM32.2539 16.5L30.2539 16.5C30.2539 18.8383 29.7149 21.0407 28.7617 22.9909L30.5586 23.8691L32.3554 24.7474C33.5706 22.2612 34.2539 19.4592 34.2539 16.5L32.2539 16.5ZM30.5586 23.8691L28.6239 24.3759L31.0653 33.6972L33 33.1904L34.9347 32.6837L32.4933 23.3624L30.5586 23.8691ZM33 33.1904L33.5288 31.2616L24.7368 28.8514L24.208 30.7803L23.6793 32.7091L32.4712 35.1193L33 33.1904ZM24.208 30.7803L23.1871 29.0605C21.1089 30.2941 18.7 31 16.127 31V33V35C19.4438 35 22.5548 34.0875 25.2289 32.5001L24.208 30.7803ZM16.127 33L16.127 31C8.36771 30.9999 2.00002 24.5514 2 16.5L0 16.5L-2 16.5C-1.99998 26.6738 6.07284 34.9999 16.1269 35L16.127 33ZM0 16.5H2C2 8.44862 8.36769 2.0001 16.127 2L16.127 0L16.1269 -2C6.07283 -1.99987 -2 6.32617 -2 16.5H0Z" fill="black" fill-opacity="0.2" mask="url(#path-1-inside-1_2048_2222)"/>
<path d="M16.127 0V-2H16.1269L16.127 0ZM32.2539 16.5L34.2539 16.5V16.5H32.2539ZM30.5586 23.8691L28.7617 22.9909L28.4358 23.6578L28.6239 24.3759L30.5586 23.8691ZM33 33.1904L32.4712 35.1193L35.8126 36.0352L34.9347 32.6837L33 33.1904ZM24.208 30.7803L24.7368 28.8514L23.9175 28.6269L23.1871 29.0605L24.208 30.7803ZM16.127 33L16.1269 35H16.127V33ZM0 16.5H-2V16.5L0 16.5ZM16.127 0V2C23.8863 2 30.2539 8.44852 30.2539 16.5H32.2539H34.2539C34.2539 6.32613 26.1812 -2 16.127 -2V0ZM32.2539 16.5L30.2539 16.5C30.2539 18.8383 29.7149 21.0407 28.7617 22.9909L30.5586 23.8691L32.3554 24.7474C33.5706 22.2612 34.2539 19.4592 34.2539 16.5L32.2539 16.5ZM30.5586 23.8691L28.6239 24.3759L31.0653 33.6972L33 33.1904L34.9347 32.6837L32.4933 23.3624L30.5586 23.8691ZM33 33.1904L33.5288 31.2616L24.7368 28.8514L24.208 30.7803L23.6793 32.7091L32.4712 35.1193L33 33.1904ZM24.208 30.7803L23.1871 29.0605C21.1089 30.2941 18.7 31 16.127 31V33V35C19.4438 35 22.5548 34.0875 25.2289 32.5001L24.208 30.7803ZM16.127 33L16.127 31C8.36771 30.9999 2.00002 24.5514 2 16.5L0 16.5L-2 16.5C-1.99998 26.6738 6.07284 34.9999 16.1269 35L16.127 33ZM0 16.5H2C2 8.44862 8.36769 2.0001 16.127 2L16.127 0L16.1269 -2C6.07283 -1.99987 -2 6.32617 -2 16.5H0Z" fill="black" fill-opacity="0.2" mask="url(#path-1-inside-1_2048_2222)"/>
<path d="M16.127 0V-2H16.1269L16.127 0ZM32.2539 16.5L34.2539 16.5V16.5H32.2539ZM30.5586 23.8691L28.7617 22.9909L28.4358 23.6578L28.6239 24.3759L30.5586 23.8691ZM33 33.1904L32.4712 35.1193L35.8126 36.0352L34.9347 32.6837L33 33.1904ZM24.208 30.7803L24.7368 28.8514L23.9175 28.6269L23.1871 29.0605L24.208 30.7803ZM16.127 33L16.1269 35H16.127V33ZM0 16.5H-2V16.5L0 16.5ZM16.127 0V2C23.8863 2 30.2539 8.44852 30.2539 16.5H32.2539H34.2539C34.2539 6.32613 26.1812 -2 16.127 -2V0ZM32.2539 16.5L30.2539 16.5C30.2539 18.8383 29.7149 21.0407 28.7617 22.9909L30.5586 23.8691L32.3554 24.7474C33.5706 22.2612 34.2539 19.4592 34.2539 16.5L32.2539 16.5ZM30.5586 23.8691L28.6239 24.3759L31.0653 33.6972L33 33.1904L34.9347 32.6837L32.4933 23.3624L30.5586 23.8691ZM33 33.1904L33.5288 31.2616L24.7368 28.8514L24.208 30.7803L23.6793 32.7091L32.4712 35.1193L33 33.1904ZM24.208 30.7803L23.1871 29.0605C21.1089 30.2941 18.7 31 16.127 31V33V35C19.4438 35 22.5548 34.0875 25.2289 32.5001L24.208 30.7803ZM16.127 33L16.127 31C8.36771 30.9999 2.00002 24.5514 2 16.5L0 16.5L-2 16.5C-1.99998 26.6738 6.07284 34.9999 16.1269 35L16.127 33ZM0 16.5H2C2 8.44862 8.36769 2.0001 16.127 2L16.127 0L16.1269 -2C6.07283 -1.99987 -2 6.32617 -2 16.5H0Z" fill="black" fill-opacity="0.2" mask="url(#path-1-inside-1_2048_2222)"/>
</svg>
