<svg width="34" height="33" viewBox="0 0 34 33" fill="none" xmlns="http://www.w3.org/2000/svg">
<path d="M16.0488 2.16309C16.3482 1.24178 17.6518 1.24177 17.9512 2.16309L20.5391 10.1289C20.9407 11.3649 22.093 12.2012 23.3926 12.2012H31.7676C32.7363 12.2012 33.1392 13.4413 32.3555 14.0107L25.5801 18.9336C24.5286 19.6975 24.0886 21.052 24.4902 22.2881L27.0781 30.2529C27.3775 31.1742 26.3228 31.9405 25.5391 31.3711L18.7637 26.4482C17.7122 25.6843 16.2878 25.6843 15.2363 26.4482L8.46094 31.3711C7.67723 31.9405 6.62252 31.1742 6.92188 30.2529L9.50977 22.2881C9.91139 21.052 9.47138 19.6975 8.41992 18.9336L1.64453 14.0107C0.860824 13.4413 1.26369 12.2012 2.23242 12.2012H10.6074C11.907 12.2012 13.0593 11.3649 13.4609 10.1289L16.0488 2.16309Z" stroke="#8BCECE" stroke-width="2"/>
</svg>
