<?xml version="1.0" encoding="UTF-8"?>
<svg version="1.1" xmlns="http://www.w3.org/2000/svg" width="267" height="298">
<path d="M0 0 C1.12436966 -0.00563965 2.24873932 -0.0112793 3.40718079 -0.01708984 C4.62094894 -0.01304138 5.8347171 -0.00899292 7.08526611 -0.00482178 C8.37869431 -0.00832642 9.6721225 -0.01183105 11.00474548 -0.01544189 C14.53545004 -0.02452195 18.0660371 -0.0210408 21.59674358 -0.01468372 C25.29622899 -0.00960526 28.99570461 -0.0143199 32.69519043 -0.01745605 C38.90221965 -0.0210885 45.10920117 -0.01631365 51.31622314 -0.0067749 C58.49349867 0.00412747 65.67066072 0.00056829 72.84793353 -0.01042771 C79.01538399 -0.0194983 85.18280028 -0.02078757 91.35025525 -0.01555037 C95.03182922 -0.01243187 98.7133498 -0.01201842 102.39492035 -0.01862335 C106.49359387 -0.02546406 110.59207088 -0.01598792 114.69073486 -0.00482178 C116.52353249 -0.01089447 116.52353249 -0.01089447 118.39335632 -0.01708984 C119.50644669 -0.0114502 120.61953705 -0.00581055 121.76635742 0 C123.21975336 0.00113108 123.21975336 0.00113108 124.70251083 0.002285 C127.12921143 0.25396729 127.12921143 0.25396729 130.12921143 2.25396729 C130.42574844 4.97557818 130.5247208 7.47024227 130.4967041 10.19441223 C130.50160736 11.43935885 130.50160736 11.43935885 130.50660968 12.70945591 C130.5139259 15.50645815 130.4996996 18.30294384 130.48565674 21.09991455 C130.4864471 23.09856252 130.4885428 25.09721033 130.49185181 27.09585571 C130.49699969 32.53578641 130.48342321 37.97552895 130.46632481 43.41542935 C130.451328 49.09646231 130.45246378 54.77749243 130.45166016 60.45854187 C130.44796389 69.99935128 130.4329778 79.5400889 130.41046143 89.08087158 C130.38157894 101.344497 130.3712382 113.60806458 130.36677933 125.87172031 C130.36280518 136.39323411 130.35030238 146.91473522 130.33643246 157.43623996 C130.33232595 160.82902482 130.32940416 164.22180922 130.32663727 167.61459541 C130.32175758 172.93573234 130.3115768 178.25683386 130.29719925 183.57795334 C130.29266199 185.53678887 130.28983424 187.49562917 130.28879166 189.45446968 C130.28705627 192.11651779 130.27920085 194.77847615 130.26965332 197.44050598 C130.2705198 198.2260914 130.27138628 199.01167683 130.27227902 199.82106787 C130.24341867 205.13976004 130.24341867 205.13976004 129.12921143 206.25396729 C126.88702393 206.59381104 126.88702393 206.59381104 124.12921143 206.25396729 C121.62139893 204.38287354 121.62139893 204.38287354 119.00421143 201.81646729 C118.03515427 200.88828192 117.06373803 199.96255415 116.09014893 199.03912354 C115.35296631 198.33553711 115.35296631 198.33553711 114.60089111 197.61773682 C112.36797076 195.5485442 110.00463186 193.65634554 107.62921143 191.75396729 C102.83673206 187.88994546 98.31021447 183.79724636 93.78936768 179.62115479 C90.56886692 176.75533473 87.19390202 174.16624625 83.71124268 171.62896729 C83.18917236 171.17521729 82.66710205 170.72146729 82.12921143 170.25396729 C82.12921143 169.59396729 82.12921143 168.93396729 82.12921143 168.25396729 C81.56718018 168.01033447 81.00514893 167.76670166 80.42608643 167.51568604 C77.68901358 166.01215792 75.67125201 164.1869698 73.37921143 162.06646729 C72.50522705 161.27111572 71.63124268 160.47576416 70.73077393 159.65631104 C69.08891773 158.14018257 67.457206 156.61292457 65.84014893 155.07037354 C65.15178955 154.42970947 64.46343018 153.78904541 63.75421143 153.12896729 C63.14835205 152.54888916 62.54249268 151.96881104 61.91827393 151.37115479 C60.21512778 150.08663872 60.21512778 150.08663872 58.25030518 150.26177979 C55.18094554 151.69753917 52.97022146 153.92228539 50.56671143 156.25396729 C45.79099234 160.76522569 40.87187826 164.99028986 35.74639893 169.10552979 C32.35380046 171.89049868 29.12382484 174.83581777 25.90655518 177.82037354 C24.12921143 179.25396729 24.12921143 179.25396729 22.12921143 179.25396729 C22.12921143 179.91396729 22.12921143 180.57396729 22.12921143 181.25396729 C20.55634459 182.66835134 18.91781147 184.01001129 17.25421143 185.31646729 C13.38576371 188.41023227 9.61149296 191.55162259 5.94171143 194.87896729 C5.12960205 195.61244385 4.31749268 196.34592041 3.48077393 197.10162354 C1.94085246 198.51108654 0.41414758 199.93515969 -1.09735107 201.37506104 C-1.78571045 202.0157251 -2.47406982 202.65638916 -3.18328857 203.31646729 C-4.07467529 204.16918213 -4.07467529 204.16918213 -4.98406982 205.03912354 C-7.41907192 206.60700273 -9.02873156 206.55388285 -11.87078857 206.25396729 C-13.63356861 204.49118725 -12.99327681 202.15989355 -12.99986988 199.81174368 C-12.99695704 199.02479401 -12.9940442 198.23784435 -12.99104309 197.42704773 C-12.99189752 196.59723218 -12.99275194 195.76741662 -12.99363226 194.91245514 C-12.99528961 192.11017409 -12.98976155 189.30795188 -12.98431396 186.50567627 C-12.98403212 184.50555421 -12.98418977 182.50543205 -12.98475647 180.50531006 C-12.98504456 175.05718694 -12.97914602 169.60908562 -12.97218251 164.16096759 C-12.96595084 158.47411887 -12.96534532 152.7872697 -12.9641571 147.10041809 C-12.96104324 136.3233677 -12.95282911 125.54632739 -12.94280761 114.76928145 C-12.93164819 102.50347121 -12.92613646 90.23766051 -12.92111218 77.97184646 C-12.91064654 52.7325478 -12.89304603 27.49325811 -12.87078857 2.25396729 C-8.46654437 0.87055487 -4.61502167 0.00358597 0 0 Z M-5.87078857 8.25396729 C-6.20078857 69.96396729 -6.53078857 131.67396729 -6.87078857 195.25396729 C-2.84914859 192.84098329 -0.09610626 190.779266 3.25421143 187.62896729 C6.95537853 184.20563578 10.70232119 180.91573278 14.62921143 177.75396729 C18.41381477 174.7004805 22.0512868 171.54728427 25.62921143 168.25396729 C30.06927843 164.16708743 34.65788081 160.33892838 39.35968018 156.55865479 C43.23106048 153.33705482 46.87877605 149.89205244 50.52374268 146.41802979 C53.24601973 144.15694809 55.91451598 142.70879296 59.12921143 141.25396729 C64.44468593 145.30209486 69.57962574 149.44576226 74.50030518 153.96881104 C76.04509654 155.46043398 76.04509654 155.46043398 78.12921143 155.25396729 C78.12921143 155.91396729 78.12921143 156.57396729 78.12921143 157.25396729 C79.68161483 158.64722682 81.29951128 159.96776857 82.94171143 161.25396729 C86.96868437 164.4714207 90.83978155 167.75434951 94.62921143 171.25396729 C99.08701703 175.35667031 103.69136982 179.20699703 108.41046143 183.00396729 C112.11210847 186.06739932 115.62586803 189.31883786 119.13311768 192.60162354 C120.95410728 194.46652071 120.95410728 194.46652071 123.12921143 194.25396729 C123.12921143 132.87396729 123.12921143 71.49396729 123.12921143 8.25396729 C80.55921143 8.25396729 37.98921143 8.25396729 -5.87078857 8.25396729 Z " fill="#90CFCF" transform="translate(77.87078857421875,52.74603271484375)"/>
</svg>
