<svg width="40" height="38" viewBox="0 0 40 38" fill="none" xmlns="http://www.w3.org/2000/svg">
<path d="M19.0508 2.04004C19.3539 1.12681 20.6461 1.12681 20.9492 2.04004L24.209 11.873C24.6159 13.1004 25.7636 13.9286 27.0566 13.9287H37.5195C38.4929 13.9289 38.8926 15.1795 38.0996 15.7441L29.7051 21.7207C28.6323 22.4845 28.1832 23.8584 28.5977 25.1084L31.8203 34.8281C32.1246 35.7458 31.0786 36.5186 30.291 35.958L21.7402 29.8691C20.6987 29.1276 19.3013 29.1276 18.2598 29.8691L9.70898 35.958C8.92137 36.5186 7.87542 35.7458 8.17969 34.8281L11.4023 25.1084C11.8168 23.8584 11.3677 22.4845 10.2949 21.7207L1.90039 15.7441C1.10737 15.1795 1.50706 13.9289 2.48047 13.9287H12.9434C14.2364 13.9286 15.3841 13.1004 15.791 11.873L19.0508 2.04004Z" stroke="#F5DA40" stroke-width="2"/>
</svg>
