<?xml version="1.0" encoding="UTF-8"?>
<svg version="1.1" xmlns="http://www.w3.org/2000/svg" width="297" height="289">
<path d="M0 0 C4.9079134 3.41846287 7.12863323 6.438303 9 12.15625 C9.24363281 12.85093384 9.48726562 13.54561768 9.73828125 14.26135254 C10.51508917 16.50052627 11.26077677 18.74816049 12 21 C12.2475 21.74362793 12.495 22.48725586 12.75 23.25341797 C14.80448204 29.4396025 16.77865986 35.65071118 18.75 41.86376953 C21.40921765 50.2274938 24.11002071 58.57824588 27.0625 66.84375 C27.28357422 67.49363892 27.50464844 68.14352783 27.73242188 68.81311035 C29.37034497 73.28170205 31.32184359 75.99736474 35 79 C38.43046982 79.73734424 38.43046982 79.73734424 42.24951172 79.61181641 C42.96076202 79.61748123 43.67201233 79.62314606 44.40481567 79.62898254 C46.74698214 79.64244418 49.08758948 79.62156624 51.4296875 79.6015625 C53.06488094 79.60706566 54.70006746 79.61519297 56.3352356 79.62582397 C60.63661446 79.64869704 64.93748496 79.64449702 69.2388916 79.63201904 C76.11574559 79.61370836 82.99230015 79.62377051 89.8690834 79.65787888 C92.26385643 79.66395884 94.65798173 79.65075188 97.05270386 79.63589478 C98.53237064 79.63884481 100.01203625 79.64250071 101.49169922 79.64697266 C102.77567596 79.64299469 104.05965271 79.63901672 105.38253784 79.63491821 C110.54724643 80.15615132 114.44214296 81.60612791 118.375 85.125 C120.54318195 88.96101422 121.55645441 92.59009877 121 97 C118.28461519 103.13579241 114.8398137 106.05748225 109.3125 109.6875 C107.77580986 110.7340347 106.23935806 111.78091945 104.703125 112.828125 C103.92001953 113.35470703 103.13691406 113.88128906 102.33007812 114.42382812 C98.70415231 116.8765709 95.13386568 119.40626474 91.5625 121.9375 C90.5269397 122.66900269 90.5269397 122.66900269 89.47045898 123.4152832 C84.09208469 127.21671294 78.72641565 131.03571333 73.375 134.875 C72.27393921 135.65991821 72.27393921 135.65991821 71.15063477 136.46069336 C63.03160636 141.76326237 63.03160636 141.76326237 57 149 C56.67531907 154.72044105 57.39099859 159.29301636 59.30859375 164.70703125 C59.55088211 165.4222142 59.79317047 166.13739716 60.0428009 166.87425232 C60.56184083 168.40120578 61.08641101 169.92628897 61.61608887 171.44958496 C62.44725271 173.84055518 63.26306412 176.23629274 64.07519531 178.63378906 C66.401967 185.4892668 68.76757075 192.33122408 71.13807678 199.17167664 C71.78349131 201.03979883 72.42319739 202.90989016 73.06274414 204.7800293 C73.83309404 207.03151667 74.6142113 209.27935959 75.40795898 211.52270508 C77.36970992 217.25765322 78.59389878 221.93131018 78 228 C75.77863437 232.36045847 73.56432971 235.13277421 69 237 C59.61091289 237.89419877 53.98396189 233.45250787 46.6875 228.0625 C45.07741913 226.88590244 43.46672779 225.71013988 41.85546875 224.53515625 C41.04384277 223.94234863 40.2322168 223.34954102 39.39599609 222.73876953 C35.79005052 220.1219421 32.14699722 217.55915348 28.5 215 C24.00127786 211.84146921 19.52057801 208.66166477 15.07421875 205.4296875 C14.25824219 204.83671875 13.44226563 204.24375 12.6015625 203.6328125 C11.02801469 202.48702526 9.45630525 201.33870776 7.88671875 200.1875 C7.17515625 199.66929687 6.46359375 199.15109375 5.73046875 198.6171875 C5.10551514 198.15940918 4.48056152 197.70163086 3.83666992 197.22998047 C-0.24754554 194.49486449 -3.22000379 193.37380347 -8.2734375 194.08984375 C-13.86891755 195.95767591 -18.40725727 199.96476988 -23.04052734 203.51904297 C-26.40180294 206.05947379 -29.86109537 208.45929379 -33.3125 210.875 C-34.74774244 211.88622699 -36.18263522 212.89795042 -37.6171875 213.91015625 C-38.33616211 214.41691895 -39.05513672 214.92368164 -39.79589844 215.44580078 C-42.77873855 217.54911937 -45.7596942 219.65510125 -48.74072266 221.76098633 C-51.53989125 223.7379497 -54.34006948 225.7134785 -57.140625 227.68847656 C-58.83381535 228.88278047 -60.52632011 230.0780562 -62.21875 231.2734375 C-63.1159375 231.90507812 -64.013125 232.53671875 -64.9375 233.1875 C-65.68902344 233.71730469 -66.44054687 234.24710938 -67.21484375 234.79296875 C-71.02584214 237.36977072 -74.50399761 237.55997142 -79 237 C-83.45282301 235.61839286 -85.58752155 233.61282512 -88.1875 229.75 C-91.30734839 219.40074258 -83.31268377 203.44850302 -79.91021729 193.48986816 C-79.10659078 191.13352155 -78.31338888 188.77388657 -77.52294922 186.41308594 C-75.31980178 179.83754988 -73.09996494 173.2694249 -70.8125 166.72265625 C-70.24959306 165.06524232 -69.68704532 163.40770631 -69.125 161.75 C-68.8686377 161.05028076 -68.61227539 160.35056152 -68.34814453 159.62963867 C-66.9334451 155.38712755 -66.7508526 152.07980431 -68.0546875 147.86181641 C-69.83704622 144.35141671 -72.73861968 142.47561445 -75.9375 140.3125 C-76.6397168 139.81194092 -77.34193359 139.31138184 -78.06542969 138.7956543 C-80.36007592 137.17124395 -82.67655077 135.58289438 -85 134 C-86.6211222 132.88545805 -88.24221569 131.77087433 -89.86328125 130.65625 C-92.30281261 128.9841104 -94.74481418 127.31601456 -97.19311523 125.65673828 C-102.67875762 121.93600264 -108.01696748 118.08813584 -113.28125 114.05859375 C-116.99315579 111.24799842 -120.80456489 108.58253517 -124.625 105.921875 C-128.08366159 103.12308964 -130.65822811 100.74906792 -131.53125 96.28125 C-131.44786403 88.85989894 -131.44786403 88.85989894 -129.4375 85 C-124.12852623 80.64391896 -119.247325 79.62604322 -112.49169922 79.63110352 C-111.4195668 79.6254538 -111.4195668 79.6254538 -110.32577515 79.61968994 C-108.78660259 79.61329429 -107.24739048 79.61355265 -105.70821762 79.61987495 C-103.26965902 79.62903787 -100.83186064 79.61870454 -98.39334106 79.60325623 C-91.46520042 79.5632887 -84.53712355 79.56195799 -77.60888672 79.56420898 C-73.36017698 79.5642601 -69.11188129 79.5450906 -64.86328506 79.51487541 C-62.46505093 79.50406565 -60.06761148 79.51616729 -57.66940308 79.52870178 C-56.19609799 79.51979715 -54.72279936 79.50972268 -53.24951172 79.49829102 C-51.32593338 79.49854027 -51.32593338 79.49854027 -49.36349487 79.49879456 C-45.42101383 78.91413837 -43.79506328 77.7863543 -41 75 C-39.57754747 72.50997221 -39.57754747 72.50997221 -38.62890625 69.59765625 C-38.21656738 68.44410645 -37.80422852 67.29055664 -37.37939453 66.10205078 C-36.91651172 64.73574167 -36.45695966 63.36830149 -36 62 C-35.73725281 61.21824402 -35.47450562 60.43648804 -35.20379639 59.63104248 C-33.06882427 53.24802644 -30.99969697 46.84432024 -28.9375 40.4375 C-28.32000187 38.52658267 -27.70216531 36.61577467 -27.08398438 34.70507812 C-26.63285278 33.310383 -26.63285278 33.310383 -26.17260742 31.88751221 C-25.03137157 28.36102496 -23.88885518 24.83495311 -22.74609375 21.30895996 C-22.07952303 19.24610245 -21.41879429 17.18148644 -20.75976562 15.11621094 C-20.41494141 14.05047852 -20.07011719 12.98474609 -19.71484375 11.88671875 C-19.43374756 11.00846436 -19.15265137 10.13020996 -18.86303711 9.2253418 C-17.06488048 4.58879365 -14.63709288 1.81854644 -10.125 -0.4375 C-6.30986799 -1.12422376 -3.75520295 -1.00585793 0 0 Z M-7 10 C-9.20229207 14.98353512 -11.10830023 19.99336225 -12.85546875 25.15234375 C-13.11821594 25.92167236 -13.38096313 26.69100098 -13.65167236 27.48364258 C-14.21080899 29.12229389 -14.76869219 30.76137336 -15.32540894 32.40084839 C-16.19560511 34.96134879 -17.07107334 37.51999868 -17.94750977 40.07836914 C-20.50648979 47.5629367 -23.04047136 55.05058198 -25.421875 62.59375 C-25.94358276 64.22969116 -25.94358276 64.22969116 -26.47583008 65.89868164 C-27.09466827 67.85417261 -27.6998176 69.8140761 -28.2878418 71.77905273 C-30.48897027 78.70877012 -33.66570369 83.61835978 -39.625 87.875 C-44.15224545 90.01948469 -48.12203138 90.14057402 -53.12353516 90.18945312 C-53.83291733 90.19774643 -54.5422995 90.20603973 -55.2731781 90.21458435 C-56.80912712 90.23194363 -58.34510201 90.2471216 -59.88109207 90.26036072 C-62.3099881 90.28143153 -64.73875358 90.30844835 -67.16757202 90.33703613 C-73.19691451 90.40677989 -79.22634981 90.46633126 -85.25579834 90.52606201 C-90.3561606 90.57695531 -95.45645105 90.63175516 -100.5567131 90.69187927 C-102.95312124 90.7184897 -105.34953601 90.73927841 -107.7460022 90.7598877 C-109.2090894 90.77648584 -110.67217353 90.79335725 -112.13525391 90.81054688 C-113.41558502 90.82307495 -114.69591614 90.83560303 -116.01504517 90.84851074 C-118.9266555 90.79611771 -118.9266555 90.79611771 -121 92 C-120.15386309 96.79773585 -117.15437242 98.54280618 -113.375 101.25 C-112.6742334 101.76377197 -111.9734668 102.27754395 -111.25146484 102.80688477 C-105.10924487 107.27762188 -98.86514064 111.60510695 -92.625 115.9375 C-91.16416992 116.95215332 -91.16416992 116.95215332 -89.67382812 117.98730469 C-83.99268555 121.9317211 -83.99268555 121.9317211 -78.29492188 125.85205078 C-75.8118193 127.55438881 -73.34238152 129.27498696 -70.875 131 C-70.14748535 131.49105225 -69.4199707 131.98210449 -68.67041016 132.48803711 C-62.90293158 136.55956152 -59.24382386 141.26852841 -57 148 C-56.41226942 154.78359749 -57.35764247 160.52980577 -59.5625 166.91796875 C-59.82980927 167.73036011 -60.09711853 168.54275146 -60.37252808 169.37976074 C-61.23445014 171.98720484 -62.1170482 174.58711135 -63 177.1875 C-63.59651119 178.98304967 -64.19172019 180.77903246 -64.78564453 182.57543945 C-67.33857837 190.26576997 -69.95407854 197.9316381 -72.6796875 205.5625 C-73.05738281 206.62186768 -73.43507812 207.68123535 -73.82421875 208.77270508 C-74.50371026 210.6575678 -75.19561263 212.53802252 -75.90234375 214.4128418 C-78.01842907 220.09989857 -78.01842907 220.09989857 -77 226 C-72.99387636 226 -72.49029317 225.99272119 -69.5234375 223.83203125 C-68.86239014 223.35781738 -68.20134277 222.88360352 -67.52026367 222.39501953 C-66.81232666 221.87278809 -66.10438965 221.35055664 -65.375 220.8125 C-64.25218628 220.00208252 -64.25218628 220.00208252 -63.10668945 219.17529297 C-60.73152969 217.45864965 -58.36563973 215.7297308 -56 214 C-53.06503427 211.87149171 -50.12620585 209.74834049 -47.1875 207.625 C-46.45611816 207.09575928 -45.72473633 206.56651855 -44.97119141 206.02124023 C-39.0890895 201.77036828 -33.18127756 197.55698324 -27.25 193.375 C-26.41621826 192.78283691 -25.58243652 192.19067383 -24.72338867 191.58056641 C-13.31934539 183.57181519 -13.31934539 183.57181519 -5.625 183.5625 C-4.56539063 183.54316406 -3.50578125 183.52382812 -2.4140625 183.50390625 C5.30649304 184.62577187 11.31513479 189.44358405 17.4375 194 C19.02412357 195.16360085 20.61137859 196.32634111 22.19921875 197.48828125 C22.99763184 198.07432129 23.79604492 198.66036133 24.61865234 199.26416016 C28.29960256 201.94732153 32.0226804 204.5693186 35.75 207.1875 C41.64087574 211.33101278 47.51453568 215.49695168 53.36035156 219.70385742 C54.90179344 220.80972591 56.45079028 221.90503999 58 223 C59.05832031 223.7734375 60.11664063 224.546875 61.20703125 225.34375 C62.58955078 226.16359375 62.58955078 226.16359375 64 227 C64.99 226.67 65.98 226.34 67 226 C66.43804899 220.31650538 65.33526155 215.26825694 63.5234375 209.86328125 C63.27714096 209.10949692 63.03084442 208.35571259 62.77708435 207.5790863 C61.98306816 205.15463829 61.17897052 202.73366292 60.375 200.3125 C59.82700781 198.64183438 59.27972886 196.97093464 58.7331543 195.29980469 C56.42491565 188.25715708 54.08907728 181.2249549 51.68359375 174.21484375 C51.3602002 173.26762451 51.03680664 172.32040527 50.70361328 171.34448242 C50.13417975 169.68657278 49.55652507 168.0314492 48.96826172 166.38012695 C46.73565015 159.90354849 44.73214089 152.84007872 47.25 146.1875 C47.66958984 145.07761719 47.66958984 145.07761719 48.09765625 143.9453125 C49.13332339 141.71257555 50.4192929 139.88179417 52 138 C52 137.34 52 136.68 52 136 C52.51304687 135.76925781 53.02609375 135.53851563 53.5546875 135.30078125 C56.91647996 133.51247951 60.00054859 131.35398462 63.125 129.1875 C63.82439697 128.70466553 64.52379395 128.22183105 65.24438477 127.72436523 C71.28063359 123.53822567 77.24045789 119.24953996 83.18237305 114.9309082 C89.27463827 110.50598589 95.4210633 106.16214584 101.60717773 101.86938477 C102.27177002 101.40459717 102.9363623 100.93980957 103.62109375 100.4609375 C104.2030249 100.05665527 104.78495605 99.65237305 105.38452148 99.23583984 C107.89414269 97.32649786 107.89414269 97.32649786 110 95 C109.61489895 92.91741857 109.61489895 92.91741857 109 91 C108.10765656 90.99635437 107.21531311 90.99270874 106.29592896 90.98895264 C97.85175798 90.95095363 89.40796855 90.89396654 80.96406746 90.81609726 C76.62381693 90.77672937 72.28376603 90.74448888 67.94335938 90.72900391 C63.74799424 90.71376636 59.55317834 90.67919675 55.35805893 90.63169098 C53.76428906 90.61694988 52.17044075 90.60896319 50.57660294 90.60811615 C31.4872307 90.5877837 31.4872307 90.5877837 24.39198303 84.65556335 C21.22600367 81.20696743 19.56339504 77.11386263 18.06640625 72.75390625 C17.81846817 72.06301407 17.57053009 71.37212189 17.31507874 70.66029358 C16.52695203 68.44555288 15.76048257 66.2243738 15 64 C14.74869324 63.26900085 14.49738647 62.53800171 14.23846436 61.78485107 C12.43383501 56.51472927 10.68116022 51.22804493 8.9375 45.9375 C8.42932691 44.40289858 7.92086387 42.86839314 7.41210938 41.33398438 C6.90885367 39.81510433 6.40559845 38.29622413 5.90234375 36.77734375 C5.65833832 36.04131927 5.41433289 35.3052948 5.16293335 34.54696655 C3.96049991 30.91623601 2.76582362 27.28330309 1.58642578 23.64501953 C1.2492025 22.612911 1.2492025 22.612911 0.90516663 21.55995178 C0.29389375 19.6888103 -0.31304438 17.8162543 -0.91967773 15.94360352 C-1.91715539 12.87069508 -1.91715539 12.87069508 -4 10 C-4.99 10 -5.98 10 -7 10 Z " fill="#F5DA3F" transform="translate(151,28)"/>
</svg>
