<svg width="48" height="44" viewBox="0 0 48 44" fill="none" xmlns="http://www.w3.org/2000/svg">
<path d="M23.5264 2.11133C23.6792 1.6573 24.3208 1.65729 24.4736 2.11133L28.6309 14.4639C29.1102 15.8882 30.4454 16.8477 31.9482 16.8477H45.2471C45.7356 16.8478 45.934 17.4763 45.5342 17.7568L34.8975 25.2188C33.6275 26.1096 33.0951 27.7299 33.5898 29.2002L37.6816 41.3574C37.8354 41.8149 37.3151 42.203 36.9199 41.9258L26.0098 34.2725C24.8035 33.4265 23.1965 33.4265 21.9902 34.2725L11.0801 41.9258C10.6849 42.203 10.1646 41.8149 10.3184 41.3574L14.4102 29.2002C14.9049 27.7299 14.3725 26.1096 13.1025 25.2188L2.46582 17.7568C2.06595 17.4762 2.26445 16.8478 2.75293 16.8477H16.0518C17.5546 16.8477 18.8898 15.8882 19.3691 14.4639L23.5264 2.11133Z" fill="#8BCECE" stroke="#8BCECE" stroke-width="3"/>
</svg>
