<svg width="47" height="44" viewBox="0 0 47 44" fill="none" xmlns="http://www.w3.org/2000/svg">
<path d="M23.0254 2.21289C23.1766 1.75556 23.8234 1.75555 23.9746 2.21289L28.0205 14.4463C28.4945 15.8795 29.8342 16.8477 31.3438 16.8477H44.3604C44.8468 16.8477 45.0473 17.4722 44.6514 17.7549L34.1816 25.2275C32.9332 26.1187 32.41 27.7195 32.8916 29.1758L36.9053 41.3105C37.0571 41.7697 36.5332 42.1559 36.1396 41.875L25.5332 34.3037C24.3167 33.4354 22.6833 33.4354 21.4668 34.3037L10.8604 41.875C10.4668 42.1559 9.94289 41.7696 10.0947 41.3105L14.1084 29.1758C14.59 27.7195 14.0668 26.1187 12.8184 25.2275L2.34863 17.7549C1.95266 17.4722 2.15315 16.8477 2.63965 16.8477H15.6562C17.1658 16.8477 18.5055 15.8795 18.9795 14.4463L23.0254 2.21289Z" fill="#FBFBFB" stroke="#8BCECE" stroke-width="3"/>
</svg>
