<svg width="33" height="31" viewBox="0 0 33 31" fill="none" xmlns="http://www.w3.org/2000/svg">
<path d="M16.0254 2.17871C16.1772 1.72247 16.8228 1.72248 16.9746 2.17871L19.4482 9.61523C19.924 11.0455 21.2622 12.0107 22.7695 12.0107H30.6738C31.1608 12.011 31.3599 12.636 30.9629 12.918L24.6504 17.3984C23.3947 18.2895 22.8685 19.8964 23.3545 21.3574L25.7852 28.6631C25.9377 29.1216 25.4156 29.508 25.0215 29.2285L18.5254 24.6191C17.3123 23.7584 15.6877 23.7584 14.4746 24.6191L7.97852 29.2285C7.58439 29.508 7.06231 29.1216 7.21484 28.6631L9.64551 21.3574C10.1315 19.8964 9.60527 18.2895 8.34961 17.3984L2.03711 12.918C1.64009 12.636 1.83922 12.011 2.32617 12.0107H10.2305C11.7378 12.0107 13.076 11.0455 13.5518 9.61523L16.0254 2.17871Z" stroke="#F5DA40" stroke-width="3"/>
</svg>
