<svg width="266" height="68" viewBox="0 0 266 68" fill="none" xmlns="http://www.w3.org/2000/svg">
<g clip-path="url(#clip0_96_142)">
<path d="M93.4062 20.0625V41.8594C93.4062 44.3906 92.7969 46.6094 91.5781 48.5156C90.375 50.4062 88.6719 51.8672 86.4688 52.8984C84.2656 53.9141 81.7188 54.4219 78.8281 54.4219C75.9375 54.4219 73.3906 53.9141 71.1875 52.8984C69 51.8672 67.3047 50.4062 66.1016 48.5156C64.8984 46.6094 64.2969 44.3906 64.2969 41.8594V20.0625H73.2031V41.0625C73.2031 42.1406 73.4453 43.1094 73.9297 43.9688C74.4141 44.8125 75.0781 45.4766 75.9219 45.9609C76.7812 46.4453 77.75 46.6875 78.8281 46.6875C79.9219 46.6875 80.8984 46.4531 81.7578 45.9844C82.6172 45.5 83.2891 44.8281 83.7734 43.9688C84.2578 43.1094 84.5 42.1406 84.5 41.0625V20.0625H93.4062ZM106.953 54H98.0938V28.5469H106.484V33.3281H106.766C107.328 31.7344 108.297 30.4844 109.672 29.5781C111.047 28.6719 112.672 28.2188 114.547 28.2188C116.312 28.2188 117.867 28.625 119.211 29.4375C120.57 30.2344 121.609 31.3594 122.328 32.8125C123.062 34.2656 123.422 35.9219 123.406 37.7812V54H114.547V39.6094C114.562 38.2969 114.242 37.2734 113.586 36.5391C112.93 35.8047 112 35.4375 110.797 35.4375C109.609 35.4375 108.672 35.8125 107.984 36.5625C107.297 37.2969 106.953 38.3125 106.953 39.6094V54ZM128.047 28.5469H136.906V54H128.047V28.5469ZM132.453 25.7812C131.656 25.7812 130.922 25.6016 130.25 25.2422C129.578 24.8672 129.039 24.3672 128.633 23.7422C128.242 23.1172 128.047 22.4375 128.047 21.7031C128.047 20.9688 128.242 20.2891 128.633 19.6641C129.039 19.0391 129.578 18.5469 130.25 18.1875C130.922 17.8125 131.656 17.625 132.453 17.625C133.25 17.625 133.984 17.8125 134.656 18.1875C135.328 18.5469 135.859 19.0391 136.25 19.6641C136.656 20.2891 136.859 20.9688 136.859 21.7031C136.859 22.4375 136.656 23.1172 136.25 23.7422C135.859 24.3672 135.328 24.8672 134.656 25.2422C133.984 25.6016 133.25 25.7812 132.453 25.7812ZM140.562 20.0625H169.812V27.2812H159.594V54H150.781V27.2812H140.562V20.0625ZM170.844 28.5469H179.422V33.3281H179.703C180.156 31.6094 180.883 30.3281 181.883 29.4844C182.883 28.6406 184.094 28.2188 185.516 28.2188C186.344 28.2188 187.109 28.3125 187.812 28.5V36.1406C187.406 35.9844 186.883 35.8672 186.242 35.7891C185.602 35.7109 185.016 35.6719 184.484 35.6719C183.562 35.6719 182.742 35.8828 182.023 36.3047C181.305 36.7109 180.734 37.2891 180.312 38.0391C179.906 38.7734 179.703 39.625 179.703 40.5938V54H170.844V28.5469ZM190.859 28.5469H199.719V54H190.859V28.5469ZM195.266 25.7812C194.469 25.7812 193.734 25.6016 193.062 25.2422C192.391 24.8672 191.852 24.3672 191.445 23.7422C191.055 23.1172 190.859 22.4375 190.859 21.7031C190.859 20.9688 191.055 20.2891 191.445 19.6641C191.852 19.0391 192.391 18.5469 193.062 18.1875C193.734 17.8125 194.469 17.625 195.266 17.625C196.062 17.625 196.797 17.8125 197.469 18.1875C198.141 18.5469 198.672 19.0391 199.062 19.6641C199.469 20.2891 199.672 20.9688 199.672 21.7031C199.672 22.4375 199.469 23.1172 199.062 23.7422C198.672 24.3672 198.141 24.8672 197.469 25.2422C196.797 25.6016 196.062 25.7812 195.266 25.7812ZM204.453 28.5469H213.219V32.9531H213.453C213.984 31.5781 214.859 30.4453 216.078 29.5547C217.297 28.6641 218.812 28.2188 220.625 28.2188C222.406 28.2188 224.055 28.6875 225.57 29.625C227.086 30.5625 228.305 32.0156 229.227 33.9844C230.148 35.9375 230.609 38.375 230.609 41.2969C230.609 44.1094 230.156 46.5 229.25 48.4688C228.359 50.4219 227.148 51.8906 225.617 52.875C224.102 53.8438 222.406 54.3281 220.531 54.3281C218.781 54.3281 217.297 53.9141 216.078 53.0859C214.875 52.2578 214 51.1719 213.453 49.8281H213.312V63.5625H204.453V28.5469ZM213.125 41.25C213.125 43.1875 213.492 44.7188 214.227 45.8438C214.977 46.9688 216.016 47.5312 217.344 47.5312C218.656 47.5312 219.68 46.9766 220.414 45.8672C221.148 44.7422 221.516 43.2031 221.516 41.25C221.516 39.3281 221.148 37.8203 220.414 36.7266C219.68 35.6172 218.656 35.0625 217.344 35.0625C216.016 35.0625 214.977 35.6094 214.227 36.7031C213.492 37.7969 213.125 39.3125 213.125 41.25Z" fill="#0B0B61"/>
<path d="M48 54L18.9375 38.8361L34.4375 36.4098M48 54L34.4375 36.4098M48 54L42.1875 23.0656L34.4375 36.4098" stroke="#0B0B61" stroke-width="4"/>
<path d="M26.042 19C30.0509 19.0002 33.083 22.0233 33.083 25.4922C33.0828 28.9609 30.0508 31.9832 26.042 31.9834C22.0331 31.9834 19.0002 28.961 19 25.4922C19 22.0232 22.0329 19 26.042 19Z" stroke="#0B0B61" stroke-width="4"/>
</g>
<defs>
<clipPath id="clip0_96_142">
<rect width="266" height="68" fill="white"/>
</clipPath>
</defs>
</svg>
