<svg width="53" height="49" viewBox="0 0 53 49" fill="none" xmlns="http://www.w3.org/2000/svg">
<path d="M19.9678 0.00683594C30.4863 0.273164 38.9316 8.8831 38.9316 19.4658L38.9248 19.9678C38.8352 23.5054 37.8002 26.8076 36.0654 29.6338L40.3223 33.8906L41.0176 33.1953L52.3232 44.502L51.6279 45.1963L52.4883 46.0566L49.707 48.8389L48.8467 47.9785L48.1514 48.6738L36.8457 37.3682L37.54 36.6719L33.6562 32.7881C30.1054 36.569 25.062 38.9316 19.4658 38.9316L18.9629 38.9248C8.61152 38.6624 0.268934 30.3192 0.00683594 19.9678L0 19.4658C0 8.71523 8.71523 0 19.4658 0L19.9678 0.00683594ZM19.4658 3.93359C10.8876 3.93359 3.93359 10.8876 3.93359 19.4658C3.93368 28.044 10.8877 34.998 19.4658 34.998C28.0439 34.998 34.998 28.0439 34.998 19.4658C34.998 10.8877 28.044 3.93368 19.4658 3.93359Z" fill="#101010"/>
</svg>
