<svg width="11" height="13" viewBox="0 0 11 13" fill="none" xmlns="http://www.w3.org/2000/svg">
<path d="M2.44531 1.22266H4.88965V0H6.11133V1.22266H8.55566V0H9.77832V1.22266H10C10.5522 1.22266 10.9999 1.67047 11 2.22266V11.2227C10.9999 11.7748 10.5522 12.2227 10 12.2227H1C0.447788 12.2227 0.000117252 11.7748 0 11.2227V2.22266C0.000117264 1.67047 0.447788 1.22266 1 1.22266H1.22266V0H2.44531V1.22266ZM1.22266 11H9.77734V4.88867H1.22266V11ZM8.29785 6.46484L4.88867 9.87402L2.70215 7.6875L3.40918 6.98047L4.88867 8.45996L7.59082 5.75781L8.29785 6.46484Z" fill="#000000"/>
</svg>
