<svg width="31" height="33" viewBox="0 0 31 33" fill="none" xmlns="http://www.w3.org/2000/svg">
<path d="M3.44434 1.5H27.5557C28.0066 1.50002 28.3855 1.63368 28.7441 1.95508L28.8965 2.10449C29.3018 2.5375 29.5 3.03089 29.5 3.66699V29.333C29.5 29.9691 29.3018 30.4625 28.8965 30.8955C28.4921 31.3253 28.0709 31.5 27.5557 31.5H3.44434C2.99342 31.5 2.61453 31.3663 2.25586 31.0449L2.10352 30.8955C1.69825 30.4625 1.5 29.9691 1.5 29.333V3.66699C1.5 3.03089 1.69825 2.5375 2.10352 2.10449C2.50791 1.67474 2.9291 1.50002 3.44434 1.5ZM19.375 15.5957C18.5765 15.5957 17.8993 15.9751 17.46 16.5986L17.459 16.5996L14.208 21.2236L12.25 18.4336L12.248 18.4316C11.8087 17.8083 11.1314 17.4287 10.333 17.4287C9.53462 17.4288 8.85721 17.8082 8.41797 18.4316L8.41699 18.4336L4.97266 23.3379C4.7356 23.6651 4.5546 24.0679 4.5127 24.5361C4.46902 25.0243 4.58666 25.4707 4.7793 25.8467C4.95803 26.1954 5.22626 26.5423 5.61914 26.7979C6.01963 27.0583 6.46151 27.167 6.88867 27.167H24.1113C24.5385 27.167 24.9804 27.0583 25.3809 26.7979C25.7737 26.5423 26.042 26.1954 26.2207 25.8467C26.4133 25.4707 26.531 25.0243 26.4873 24.5361C26.4454 24.0673 26.2638 23.6644 26.0264 23.3369H26.0273L21.291 16.5996L21.29 16.5986L21.2051 16.4844C20.7658 15.929 20.1236 15.5957 19.375 15.5957Z" stroke="black" stroke-width="3"/>
</svg>
