<svg width="44" height="44" viewBox="0 0 44 44" fill="none" xmlns="http://www.w3.org/2000/svg">
<path d="M12.5 13L37.5 13.0004M12.5 22L37.5 22.0004M12.5 31L37.5 31.0004" stroke="#101010" stroke-width="3"/>
<path d="M9.03711 15H8.10449V12.3242H8.08496L7.30371 12.793V11.9971L8.17773 11.4648H9.03711V15Z" fill="black"/>
<path d="M7.23926 23.3311L8.55273 22.2275C8.65527 22.1396 8.73665 22.064 8.79688 22.0005C8.8571 21.937 8.90348 21.8711 8.93604 21.8027C8.97021 21.7344 8.9873 21.6595 8.9873 21.5781C8.9873 21.443 8.94336 21.3356 8.85547 21.2559C8.76921 21.1745 8.6569 21.1338 8.51855 21.1338C8.38021 21.1338 8.26872 21.1753 8.18408 21.2583C8.10107 21.3413 8.05957 21.4577 8.05957 21.6074H7.17578C7.17578 21.3649 7.23112 21.1541 7.3418 20.9751C7.45247 20.7944 7.60872 20.6561 7.81055 20.5601C8.014 20.464 8.25 20.416 8.51855 20.416C8.79362 20.416 9.03451 20.4608 9.24121 20.5503C9.44954 20.6398 9.60986 20.7668 9.72217 20.9312C9.83447 21.0939 9.89062 21.2835 9.89062 21.5C9.89062 21.6432 9.86133 21.7808 9.80273 21.9126C9.74577 22.0444 9.64486 22.1909 9.5 22.3521C9.35677 22.5132 9.15332 22.7044 8.88965 22.9258L8.5332 23.2334V23.2529H9.92969V24H7.23926V23.3311Z" fill="black"/>
<path d="M8.61133 33.0488C8.33789 33.0488 8.09294 33.0016 7.87646 32.9072C7.66162 32.8112 7.49316 32.6785 7.37109 32.5093C7.24902 32.34 7.18717 32.1488 7.18555 31.9355H8.12305C8.12467 32.0039 8.14665 32.0658 8.18896 32.1211C8.23128 32.1764 8.28988 32.2196 8.36475 32.2505C8.43962 32.2814 8.52344 32.2969 8.61621 32.2969C8.70736 32.2969 8.78874 32.2806 8.86035 32.248C8.93359 32.2139 8.98975 32.1683 9.02881 32.1113C9.0695 32.0527 9.08984 31.986 9.08984 31.9111C9.08984 31.8363 9.06706 31.7695 9.02148 31.7109C8.97591 31.6523 8.91162 31.6068 8.82861 31.5742C8.74561 31.5417 8.65039 31.5254 8.54297 31.5254H8.18652V30.8809H8.54297C8.64062 30.8809 8.7277 30.8646 8.8042 30.832C8.8807 30.7995 8.93929 30.7547 8.97998 30.6978C9.0223 30.6392 9.04264 30.5732 9.04102 30.5C9.04264 30.43 9.02555 30.3674 8.98975 30.312C8.95394 30.255 8.90348 30.2111 8.83838 30.1802C8.7749 30.1493 8.70247 30.1338 8.62109 30.1338C8.53158 30.1338 8.45101 30.1501 8.37939 30.1826C8.30778 30.2135 8.25163 30.2583 8.21094 30.3169C8.17025 30.3739 8.14909 30.4382 8.14746 30.5098H7.25879C7.26042 30.2998 7.31901 30.1118 7.43457 29.9458C7.55176 29.7798 7.7137 29.6504 7.92041 29.5576C8.12712 29.4632 8.36068 29.416 8.62109 29.416C8.87663 29.416 9.10449 29.4608 9.30469 29.5503C9.50488 29.6382 9.66032 29.7603 9.771 29.9165C9.8833 30.0711 9.93945 30.2461 9.93945 30.4414C9.93945 30.57 9.90853 30.6864 9.84668 30.7905C9.78646 30.8931 9.70182 30.9761 9.59277 31.0396C9.48372 31.1014 9.36003 31.1396 9.22168 31.1543V31.1836C9.49674 31.2145 9.70671 31.3016 9.85156 31.4448C9.99805 31.5864 10.0713 31.7679 10.0713 31.9893C10.0713 32.1943 10.0094 32.3774 9.88574 32.5386C9.76204 32.6981 9.58952 32.8234 9.36816 32.9146C9.14681 33.0041 8.89453 33.0488 8.61133 33.0488Z" fill="black"/>
</svg>
