<svg width="25" height="34" viewBox="0 0 25 34" fill="none" xmlns="http://www.w3.org/2000/svg">
<path d="M12.5 1.5C18.6527 1.5 23.5 6.21849 23.5 11.9004C23.4999 13.8128 22.8205 16.0761 21.6895 18.4795C20.5683 20.8619 19.0593 23.2667 17.5264 25.4297C15.9966 27.5881 14.4634 29.478 13.3115 30.8291C13.0128 31.1795 12.7397 31.4926 12.5 31.7646C12.2603 31.4926 11.9872 31.1795 11.6885 30.8291C10.5366 29.478 9.00335 27.5881 7.47363 25.4297C5.94072 23.2667 4.43168 20.8619 3.31055 18.4795C2.17953 16.0761 1.50009 13.8128 1.5 11.9004C1.5 6.21849 6.34733 1.5 12.5 1.5ZM12.5 6.15039C9.27767 6.15039 6.53613 8.65729 6.53613 11.9004C6.53635 15.1433 9.2778 17.6504 12.5 17.6504C15.7222 17.6504 18.4636 15.1433 18.4639 11.9004C18.4639 8.65729 15.7223 6.15039 12.5 6.15039Z" stroke="black" stroke-width="3"/>
</svg>
