<svg width="32" height="31" viewBox="0 0 32 31" fill="none" xmlns="http://www.w3.org/2000/svg">
<path d="M15.5244 2.31738C15.6742 1.85699 16.3258 1.85701 16.4756 2.31738L18.8389 9.5918C19.3074 11.0339 20.6517 12.0107 22.168 12.0107H29.8164C30.3008 12.0107 30.5022 12.6303 30.1104 12.915L23.9229 17.4111C22.6961 18.3024 22.1828 19.8821 22.6514 21.3242L25.0146 28.5986C25.1643 29.0593 24.637 29.4429 24.2451 29.1582L18.0576 24.6621C16.8309 23.7709 15.1691 23.7709 13.9424 24.6621L7.75488 29.1582C7.36302 29.4429 6.83568 29.0593 6.98535 28.5986L9.34863 21.3242C9.81719 19.8821 9.30386 18.3024 8.07715 17.4111L1.88965 12.915C1.49779 12.6303 1.69924 12.0107 2.18359 12.0107H9.83203C11.3483 12.0107 12.6926 11.0339 13.1611 9.5918L15.5244 2.31738Z" fill="#FBFBFB" stroke="#101010" stroke-width="3"/>
</svg>
