<svg width="26" height="25" viewBox="0 0 26 25" fill="none" xmlns="http://www.w3.org/2000/svg">
<path d="M5.50312 25C5.00333 25 4.59561 24.8047 4.27995 24.4141C3.96429 24.0234 3.87223 23.5937 4.00375 23.125L5.10855 18.75H1.59686C1.07076 18.75 0.649884 18.5484 0.334226 18.1453C0.018568 17.7411 -0.0734988 17.2917 0.0580254 16.7969C0.13694 16.4323 0.321074 16.1458 0.610427 15.9375C0.89978 15.7292 1.22859 15.625 1.59686 15.625H5.8977L7.47599 9.375H3.17515C2.64905 9.375 2.22817 9.17344 1.91252 8.77031C1.59686 8.36615 1.50479 7.91667 1.63632 7.42188C1.71523 7.05729 1.89936 6.77083 2.18872 6.5625C2.47807 6.35417 2.80688 6.25 3.17515 6.25H8.26513L9.56722 1.13281C9.64613 0.794271 9.81711 0.520833 10.0802 0.3125C10.3432 0.104166 10.6589 0 11.0271 0C11.5269 0 11.9347 0.195312 12.2503 0.585938C12.566 0.976562 12.658 1.40625 12.5265 1.875L11.4217 6.25H17.7349L19.037 1.13281C19.1159 0.794271 19.2869 0.520833 19.5499 0.3125C19.8129 0.104166 20.1286 0 20.4969 0C20.9967 0 21.4044 0.195312 21.72 0.585938C22.0357 0.976562 22.1278 1.40625 21.9963 1.875L20.8914 6.25H24.4031C24.9292 6.25 25.3501 6.45156 25.6658 6.85469C25.9814 7.25885 26.0735 7.70833 25.942 8.20312C25.8631 8.56771 25.6789 8.85417 25.3896 9.0625C25.1002 9.27083 24.7714 9.375 24.4031 9.375H20.1023L18.524 15.625H22.8249C23.3509 15.625 23.7718 15.8266 24.0875 16.2297C24.4031 16.6339 24.4952 17.0833 24.3637 17.5781C24.2848 17.9427 24.1006 18.2292 23.8113 18.4375C23.5219 18.6458 23.1931 18.75 22.8249 18.75H17.7349L16.4328 23.8672C16.3539 24.2057 16.1829 24.4792 15.9198 24.6875C15.6568 24.8958 15.3411 25 14.9729 25C14.4731 25 14.0653 24.8047 13.7497 24.4141C13.434 24.0234 13.342 23.5937 13.4735 23.125L14.5783 18.75H8.26513L6.96304 23.8672C6.88413 24.2057 6.71315 24.4792 6.4501 24.6875C6.18705 24.8958 5.87139 25 5.50312 25ZM9.05428 15.625H15.3674L16.9457 9.375H10.6326L9.05428 15.625Z" fill="black"/>
</svg>
